<?xml version="1.0" encoding="UTF-8"?>
<svg width="24px" height="24px" viewBox="0 0 24 24" version="1.1" xmlns="http://www.w3.org/2000/svg" xmlns:xlink="http://www.w3.org/1999/xlink">
    <!-- Generator: Sketch 51.1 (57501) - http://www.bohemiancoding.com/sketch -->
    <title>Fill 1 Copy 9</title>
    <desc>Created with Sketch.</desc>
    <defs></defs>
    <g id="UI-kit" stroke="none" stroke-width="1" fill="none" fill-rule="evenodd">
        <g id="icon" transform="translate(-369.000000, -360.000000)">
            <g id="portrait_White" transform="translate(370.000000, 361.000000)">
                <g id="Group-8">
                    <rect id="Rectangle-9" stroke="#979797" fill="#D8D8D8" opacity="0" x="0.5" y="0.5" width="21" height="21"></rect>
                    <path d="M10.9997245,0 C4.92813666,0 0,4.92813666 0,10.9997245 C0,17.0718633 4.92813666,22 10.9997245,22 C17.0718633,22 22,17.0718633 22,10.9997245 C22,4.92813666 17.0718633,0 10.9997245,0 L10.9997245,0 Z M10.9997449,3.66666667 C12.690671,3.66666667 14.0555556,5.03155121 14.0555556,6.72247734 C14.0555556,8.41289323 12.690671,9.77777778 10.9997449,9.77777778 C9.30932899,9.77777778 7.94444444,8.41289323 7.94444444,6.72247734 C7.94444444,5.03155121 9.30932899,3.66666667 10.9997449,3.66666667 L10.9997449,3.66666667 Z M11,18.3333333 C8.4539163,18.3333333 6.20274971,17.091285 4.88888889,15.209747 C4.91950312,13.2791296 8.96313304,12.2222222 11,12.2222222 C13.0271725,12.2222222 17.0804969,13.2791296 17.1111111,15.209747 C15.7972503,17.091285 13.5465939,18.3333333 11,18.3333333 L11,18.3333333 Z" id="My" fill="#ffffff"></path>
                </g>
            </g>
        </g>
    </g>
</svg>
