<?xml version="1.0" encoding="UTF-8"?>
<svg width="24px" height="24px" viewBox="0 0 24 24" version="1.1" xmlns="http://www.w3.org/2000/svg" xmlns:xlink="http://www.w3.org/1999/xlink">
    <!-- Generator: Sketch 51.1 (57501) - http://www.bohemiancoding.com/sketch -->
    <title>Fill 1 Copy 12</title>
    <desc>Created with Sketch.</desc>
    <defs>
        <polygon id="path-1" points="0.0136021622 0.0194594595 8.98054054 0.0194594595 8.98054054 8.98642216 0.0136021622 8.98642216"></polygon>
        <polygon id="path-3" points="4.85718012e-06 0.0193762104 8.95278355 0.0193762104 8.95278355 8.94797758 4.85718012e-06 8.94797758"></polygon>
        <polygon id="path-5" points="4.85718012e-06 0.00872835268 8.95278355 0.00872835268 8.95278355 8.96149733 4.85718012e-06 8.96149733"></polygon>
        <polygon id="path-7" points="0.0135439711 0.00872835268 8.94212112 0.00872835268 8.94212112 8.96149733 0.0135439711 8.96149733"></polygon>
    </defs>
    <g id="UI-kit" stroke="none" stroke-width="1" fill="none" fill-rule="evenodd">
        <g id="icon" transform="translate(-267.000000, -360.000000)">
            <g id="Group-13" transform="translate(269.000000, 362.000000)">
                <g id="Group-9" transform="translate(11.000000, 0.000000)">
                    <mask id="mask-2" fill="white">
                        <use xlink:href="#path-1"></use>
                    </mask>
                    <g id="Clip-8"></g>
                </g>
                <g id="Group-11">
                    <g id="Group-14">
                        <g id="Group-3">
                            <mask id="mask-4" fill="white">
                                <use xlink:href="#path-3"></use>
                            </mask>
                            <g id="Clip-2"></g>
                            <path d="M1.9098238,0.0193713664 L7.04296461,0.0193713664 C8.09772556,0.0193713664 8.95278355,0.872118388 8.95278355,1.92405285 L8.95278355,7.04329609 C8.95278355,8.09523055 8.09772556,8.94797758 7.04296461,8.94797758 L1.9098238,8.94797758 C0.855062846,8.94797758 4.85718012e-06,8.09523055 4.85718012e-06,7.04329609 L4.85718012e-06,1.92405285 C4.85718012e-06,0.872118388 0.855062846,0.0193713664 1.9098238,0.0193713664" id="Fill-1" fill="#ffffff" mask="url(#mask-4)"></path>
                        </g>
                        <g id="Group-6" transform="translate(0.000000, 10.753797)">
                            <mask id="mask-6" fill="white">
                                <use xlink:href="#path-5"></use>
                            </mask>
                            <g id="Clip-5"></g>
                            <path d="M1.9098238,0.00872835268 L7.04296461,0.00872835268 C8.09772556,0.00872835268 8.95278355,0.863786341 8.95278355,1.91854729 L8.95278355,7.0516881 C8.95278355,8.10644905 8.09772556,8.96150704 7.04296461,8.96150704 L1.9098238,8.96150704 C0.855062846,8.96150704 4.85718012e-06,8.10644905 4.85718012e-06,7.0516881 L4.85718012e-06,1.91854729 C4.85718012e-06,0.863786341 0.855062846,0.00872835268 1.9098238,0.00872835268" id="Fill-4" fill="#ffffff" mask="url(#mask-6)"></path>
                        </g>
                        <path d="M12.671998,0.0193713664 L17.7912655,0.0193713664 C18.8431757,0.0193713664 19.6959228,0.872118388 19.6959228,1.92405285 L19.6959228,7.04329609 C19.6959228,8.09523055 18.8431757,8.94797758 17.7912655,8.94797758 L12.671998,8.94797758 C11.6200878,8.94797758 10.7673408,8.09523055 10.7673408,7.04329609 L10.7673408,1.92405285 C10.7673408,0.872118388 11.6200878,0.0193713664 12.671998,0.0193713664" id="Fill-7" fill="#ffffff"></path>
                        <g id="Group-12" transform="translate(10.753797, 10.753797)">
                            <mask id="mask-8" fill="white">
                                <use xlink:href="#path-7"></use>
                            </mask>
                            <g id="Clip-11"></g>
                            <path d="M1.91820124,0.00872835268 L7.03746869,0.00872835268 C8.08937894,0.00872835268 8.94212596,0.863786341 8.94212596,1.91854729 L8.94212596,7.0516881 C8.94212596,8.10644905 8.08937894,8.96150704 7.03746869,8.96150704 L1.91820124,8.96150704 C0.866290992,8.96150704 0.0135439711,8.10644905 0.0135439711,7.0516881 L0.0135439711,1.91854729 C0.0135439711,0.863786341 0.866290992,0.00872835268 1.91820124,0.00872835268" id="Fill-10" fill="#ffffff" mask="url(#mask-8)"></path>
                        </g>
                    </g>
                </g>
            </g>
        </g>
    </g>
</svg>
