<?xml version="1.0" encoding="UTF-8"?>
<svg width="350px" height="350px" viewBox="0 0 350 350" version="1.1" xmlns="http://www.w3.org/2000/svg" xmlns:xlink="http://www.w3.org/1999/xlink">
    <!-- Generator: Sketch 53 (72520) - https://sketchapp.com -->
    <title>无搜索结果</title>
    <desc>Created with Sketch.</desc>
    <defs>
        <radialGradient cx="50%" cy="50%" fx="50%" fy="50%" r="50%" id="radialGradient-1">
            <stop stop-color="#E6F1FF" offset="0%"></stop>
            <stop stop-color="#CFE4FF" offset="60%"></stop>
            <stop stop-color="#A8CFFF" offset="100%"></stop>
        </radialGradient>
        <filter x="-2.4%" y="-2.4%" width="104.8%" height="104.8%" filterUnits="objectBoundingBox" id="filter-2">
            <feGaussianBlur stdDeviation="2" in="SourceGraphic"></feGaussianBlur>
        </filter>
        <linearGradient x1="50.0402091%" y1="100%" x2="50.0402091%" y2="-0.876265234%" id="linearGradient-3">
            <stop stop-color="#FFFFFF" offset="20%"></stop>
            <stop stop-color="#E6F1FF" offset="60%"></stop>
            <stop stop-color="#A8CFFF" offset="100%"></stop>
        </linearGradient>
        <linearGradient x1="50.0389818%" y1="99.8456798%" x2="50.0389818%" y2="0.000507860679%" id="linearGradient-4">
            <stop stop-color="#FFFFFF" offset="20%"></stop>
            <stop stop-color="#E6F1FF" offset="60%"></stop>
            <stop stop-color="#A8CFFF" offset="100%"></stop>
        </linearGradient>
        <linearGradient x1="50.044827%" y1="100.10898%" x2="50.044827%" y2="-0.697145495%" id="linearGradient-5">
            <stop stop-color="#FFFFFF" offset="20%"></stop>
            <stop stop-color="#E6F1FF" offset="60%"></stop>
            <stop stop-color="#A8CFFF" offset="100%"></stop>
        </linearGradient>
        <linearGradient x1="99.0133995%" y1="50.1273198%" x2="1.31668361%" y2="49.8518026%" id="linearGradient-6">
            <stop stop-color="#FFFFFF" offset="0%"></stop>
            <stop stop-color="#CFE4FF" offset="50%"></stop>
            <stop stop-color="#86BCFF" offset="100%"></stop>
        </linearGradient>
        <linearGradient x1="98.5523851%" y1="50.2756783%" x2="1.30868295%" y2="49.713437%" id="linearGradient-7">
            <stop stop-color="#FFFFFF" offset="0%"></stop>
            <stop stop-color="#CFE4FF" offset="50%"></stop>
            <stop stop-color="#86BCFF" offset="100%"></stop>
        </linearGradient>
        <linearGradient x1="1.43732999%" y1="49.9779132%" x2="102.518358%" y2="50.0089091%" id="linearGradient-8">
            <stop stop-color="#FFFFFF" offset="0%"></stop>
            <stop stop-color="#CFE4FF" offset="50%"></stop>
            <stop stop-color="#86BCFF" offset="100%"></stop>
        </linearGradient>
        <linearGradient x1="49.9967752%" y1="90.3246538%" x2="49.9967752%" y2="1.91955938%" id="linearGradient-9">
            <stop stop-color="#FFFFFF" offset="0%"></stop>
            <stop stop-color="#E6F1FF" offset="30%"></stop>
            <stop stop-color="#CFE4FF" offset="70%"></stop>
            <stop stop-color="#86BCFF" offset="100%"></stop>
        </linearGradient>
        <linearGradient x1="49.9878754%" y1="90.3233213%" x2="49.9878754%" y2="1.9041446%" id="linearGradient-10">
            <stop stop-color="#FFFFFF" offset="0%"></stop>
            <stop stop-color="#CFE4FF" offset="70%"></stop>
            <stop stop-color="#86BCFF" offset="100%"></stop>
        </linearGradient>
    </defs>
    <g id="搜索" stroke="none" stroke-width="1" fill="none" fill-rule="evenodd">
        <g id="画板" transform="translate(-200.000000, -328.000000)">
            <g id="情感图标-无结果-04" transform="translate(200.000000, 328.000000)">
                <rect id="矩形" x="0" y="0" width="350" height="350"></rect>
                <g id="分组" opacity="0.6" transform="translate(50.000000, 50.000000)" fill="url(#radialGradient-1)" fill-rule="nonzero">
                    <g id="椭圆形">
                        <circle filter="url(#filter-2)" cx="125" cy="125" r="125"></circle>
                    </g>
                </g>
                <path d="M303.35,221.31 C301.877328,221.308488 300.421387,221.62218 299.08,222.23 C299.08,221.96 299.08,221.7 299.08,221.43 C298.924809,214.72952 293.465541,209.3693 286.763343,209.336804 C280.061145,209.304309 274.550157,214.61134 274.33,221.31 L274.33,221.31 C268.602807,221.31 263.96,225.952807 263.96,231.68 C263.96,237.407193 268.602807,242.05 274.33,242.05 L303.33,242.05 C309.057193,242.05 313.7,237.407193 313.7,231.68 C313.7,225.952807 309.057193,221.31 303.33,221.31 L303.35,221.31 Z" id="路径" fill="url(#linearGradient-3)" fill-rule="nonzero"></path>
                <path d="M55.37,143.23 C54.2039745,143.238 53.0537929,143.500801 52,144 C52,143.79 52,143.58 52,143.37 C52.0276142,138.012838 47.7071621,133.647614 42.35,133.62 C36.9928379,133.592386 32.6276142,137.912838 32.6,143.27 L32.6,143.27 C28.2181202,143.423656 24.745263,147.020427 24.745263,151.405 C24.745263,155.789573 28.2181202,159.386344 32.6,159.54 L55.37,159.54 C59.7518798,159.386344 63.224737,155.789573 63.224737,151.405 C63.224737,147.020427 59.7518798,143.423656 55.37,143.27 L55.37,143.23 Z" id="路径" fill="url(#linearGradient-4)" fill-rule="nonzero" opacity="0.7"></path>
                <path d="M117.61,267.24 C115.959897,267.223962 114.325856,267.565098 112.82,268.24 C112.82,267.94 112.82,267.64 112.82,267.34 C112.659626,259.818515 106.536277,253.794016 99.0131784,253.756061 C91.49008,253.718107 85.3062568,259.680516 85.07,267.2 L85.07,267.2 C78.6469284,267.2 73.44,272.406928 73.44,278.83 C73.44,285.253072 78.6469284,290.46 85.07,290.46 L117.58,290.46 C124.003072,290.46 129.21,285.253072 129.21,278.83 C129.21,272.406928 124.003072,267.2 117.58,267.2 L117.61,267.24 Z" id="路径" fill="url(#linearGradient-5)" fill-rule="nonzero" opacity="0.7"></path>
                <circle id="椭圆形" fill="#E6F1FF" fill-rule="nonzero" opacity="0.8" cx="72.5" cy="260.5" r="4"></circle>
                <circle id="椭圆形" fill="#E6F1FF" fill-rule="nonzero" cx="271.5" cy="277.5" r="3"></circle>
                <rect id="矩形" fill="#E6F1FF" fill-rule="nonzero" transform="translate(76.500000, 48.500000) rotate(90.000000) translate(-76.500000, -48.500000) " x="70.5" y="46.5" width="12" height="4" rx="2"></rect>
                <rect id="矩形" fill="#E6F1FF" fill-rule="nonzero" transform="translate(76.500000, 48.500000) rotate(-180.000000) translate(-76.500000, -48.500000) " x="70.5" y="46.5" width="12" height="4" rx="2"></rect>
                <rect id="矩形" fill="url(#linearGradient-6)" fill-rule="nonzero" transform="translate(269.889305, 60.217899) rotate(129.250000) translate(-269.889305, -60.217899) " x="257.889305" y="57.217899" width="24" height="6" rx="3"></rect>
                <rect id="矩形" fill="url(#linearGradient-7)" fill-rule="nonzero" transform="translate(277.799876, 75.044664) rotate(159.250000) translate(-277.799876, -75.044664) " x="267.799876" y="72.044664" width="20" height="6" rx="3"></rect>
                <rect id="矩形" fill="url(#linearGradient-8)" fill-rule="nonzero" transform="translate(253.774324, 55.396938) rotate(-80.750000) translate(-253.774324, -55.396938) " x="243.774324" y="52.3969377" width="20" height="6" rx="3"></rect>
                <g id="分组" opacity="0.3" transform="translate(111.000000, 102.000000)" fill="#FFFFFF" fill-rule="nonzero">
                    <path d="M65.19,1 C90.0349109,0.993976645 112.579278,15.5429426 122.808811,38.1841944 C133.038344,60.8254462 129.055706,87.3595654 112.63,106 L134.87,128.24 C135.881062,129.251062 136.275926,130.724716 135.905852,132.105852 C135.535778,133.486988 134.456988,134.565778 133.075852,134.935852 C131.694716,135.305926 130.221062,134.911062 129.21,133.9 L107,111.63 C85.9076635,130.236175 55.0597699,132.67043 31.3101815,117.6028 C7.5605931,102.535171 -3.37872499,73.5895414 4.46896466,46.5804655 C12.3166543,19.5713896 37.0639198,0.994764948 65.19,1 L65.19,1 Z M65.19,3.41772034e-15 C36.7322703,-0.0176503352 11.6566595,18.6953179 3.57454937,45.9812518 C-4.5075608,73.2671856 6.33149848,102.618101 30.2081388,118.101923 C54.084779,133.585745 85.3041689,131.509418 106.92,113 L128.5,134.58 C130.461894,136.474861 133.580424,136.447762 135.509093,134.519093 C137.437762,132.590424 137.464861,129.471894 135.57,127.51 L114,105.92 C130.276087,86.8702167 133.984435,60.0929332 123.497986,37.3368435 C113.011536,14.5807538 90.2460418,0.00313308907 65.19,3.41772034e-15 Z" id="形状"></path>
                </g>
                <path d="M245.87,230.21 L223.63,208 C246.19129,182.382563 244.341629,143.481052 219.451536,120.1198 C194.561442,96.7585467 155.620867,97.3753066 131.483087,121.513087 C107.345307,145.650867 106.728547,184.591442 130.0898,209.481536 C153.451052,234.371629 192.352563,236.22129 217.97,213.66 L240.21,235.9 C241.221062,236.911062 242.694716,237.305926 244.075852,236.935852 C245.456988,236.565778 246.535778,235.486988 246.905852,234.105852 C247.275926,232.724716 246.881062,231.251062 245.87,230.24 L245.87,230.21 Z" id="路径" fill="url(#linearGradient-9)" fill-rule="nonzero"></path>
                <path d="M175.7,189 C175.21948,188.997177 174.748991,188.862257 174.34,188.61 C173.93174,188.36112 173.58888,188.01826 173.34,187.61 C173.111299,187.189514 172.991007,186.718656 172.99,186.24 C172.95734,185.495257 173.236348,184.770562 173.76,184.24 C174.303104,183.738349 175.020959,183.469153 175.76,183.49 C176.502744,183.445834 177.229439,183.718344 177.76,184.24 C178.288357,184.768182 178.571258,185.493568 178.54,186.24 C178.552108,187.208322 178.0291,188.104358 177.18,188.57 C176.763575,188.82327 176.287319,188.961315 175.8,188.97 L175.7,189 Z M175.5,178.93 C174.91883,178.865206 174.385083,178.578631 174.01,178.13 C173.631406,177.675341 173.448064,177.089365 173.5,176.5 C173.741869,174.560331 174.490301,172.718566 175.67,171.16 C176.959143,169.390575 178.412239,167.746634 180.01,166.25 L180.01,166.25 C181.88059,164.524742 183.499722,162.545428 184.82,160.37 C185.389674,159.348501 185.663251,158.188398 185.61,157.02 C185.722066,154.739262 184.873349,152.515914 183.27,150.89 C182.350103,149.932316 181.248678,149.167438 180.03,148.64 C178.798931,148.13384 177.481061,147.872304 176.15,147.87 C173.629683,147.831956 171.204136,148.829647 169.44,150.63 C167.703949,152.409275 166.71309,154.784475 166.67,157.27 L166.67,157.27 C166.691671,157.876613 166.464009,158.465644 166.04,158.9 C165.618544,159.326055 165.039024,159.557863 164.44,159.54 C163.842411,159.578628 163.258956,159.347447 162.85,158.91 L162.85,158.91 C162.422172,158.471081 162.181891,157.88293 162.18,157.27 C162.150949,155.45384 162.491163,153.650709 163.18,151.97 C164.648432,148.581334 167.351334,145.878432 170.74,144.41 C172.421261,143.723029 174.224006,143.382888 176.04,143.41 C177.995205,143.40445 179.932259,143.785064 181.74,144.53 C183.534117,145.271341 185.14991,146.386034 186.48,147.8 C187.736604,149.033911 188.706209,150.529288 189.32,152.18 C189.925061,153.815362 190.177251,155.560242 190.06,157.3 L190.06,157.3 C190.038734,158.999081 189.631832,160.671139 188.87,162.19 C188.04,163.96 186.11,166.39 183.15,169.42 C181.830511,170.664855 180.600773,172.001527 179.47,173.42 C178.659194,174.414308 178.13381,175.610249 177.95,176.88 C177.884827,177.436322 177.62226,177.950812 177.21,178.33 C176.806492,178.706752 176.271937,178.911246 175.72,178.9 L175.45,178.9 L175.5,178.93 Z" id="形状" fill="#FFFFFF" fill-rule="nonzero"></path>
                <path d="M157.12,251 L148.9,242.77 C157.244811,233.296644 156.56178,218.909447 147.357032,210.269253 C138.152283,201.629059 123.750682,201.856812 114.823747,210.783747 C105.896812,219.710682 105.669059,234.112283 114.309253,243.317032 C122.949447,252.52178 137.336644,253.204811 146.81,244.86 L155.03,253.09 C155.609862,253.660522 156.540138,253.660522 157.12,253.09 C157.399091,252.813883 157.556136,252.437598 157.556136,252.045 C157.556136,251.652402 157.399091,251.276117 157.12,251 Z" id="路径" fill="url(#linearGradient-10)" fill-rule="nonzero" opacity="0.5"></path>
            </g>
        </g>
    </g>
</svg>