<?xml version="1.0" encoding="UTF-8"?>
<svg width="163px" height="90px" viewBox="0 0 163 90" version="1.1" xmlns="http://www.w3.org/2000/svg" xmlns:xlink="http://www.w3.org/1999/xlink">
    <!-- Generator: Sketch 54.1 (76490) - https://sketchapp.com -->
    <title>noData</title>
    <desc>Created with Sketch.</desc>
    <defs>
        <polygon id="path-1" points="0.00661764706 0.0958455882 162.966775 0.0958455882 162.966775 41.7003309 0.00661764706 41.7003309"></polygon>
    </defs>
    <g id="UI-kit" stroke="none" stroke-width="1" fill="none" fill-rule="evenodd">
        <g id="icon" transform="translate(-486.000000, -231.000000)">
            <g id="编组-2" transform="translate(486.000000, 231.000000)">
                <g id="wushuju" transform="translate(-0.000000, 0.000000)">
                    <path d="M22.1677941,64.3598162 C21.0123529,64.3598162 20.0666912,63.4141544 20.0666912,62.2586029 C20.0666912,61.1027206 21.0123529,60.1573897 22.1677941,60.1573897 C23.3237868,60.1573897 24.2690074,61.1027206 24.2690074,62.2586029 C24.2690074,63.4141544 23.3237868,64.3598162 22.1677941,64.3598162 Z M22.1677941,61.1027206 C21.5374632,61.1027206 21.1174632,61.6282721 21.1174632,62.1534926 C21.1174632,62.6787132 21.6426838,63.2038235 22.1677941,63.2038235 C22.6934559,63.2038235 23.2186765,62.6787132 23.2186765,62.1534926 C23.2186765,61.6282721 22.6934559,61.1027206 22.1677941,61.1027206 Z M113.151397,5.94573529 C111.995515,5.94573529 111.050184,4.99996324 111.050184,3.84408088 C111.050184,2.68852941 111.995515,1.74286765 113.151397,1.74286765 C114.306949,1.74286765 115.25261,2.68852941 115.25261,3.84408088 C115.25261,4.99996324 114.306949,5.94573529 113.151397,5.94573529 Z M113.151397,2.79375 C112.521066,2.79375 112.100625,3.31886029 112.100625,3.84408088 C112.100625,4.36974265 112.625846,4.89485294 113.151397,4.89485294 C113.676618,4.89485294 114.201838,4.36974265 114.201838,3.84408088 C114.201838,3.31886029 113.781728,2.79375 113.151397,2.79375 Z M137.000404,24.8564338 C135.844412,24.8564338 134.899191,23.9111029 134.899191,22.7552206 C134.899191,21.5996691 135.844412,20.6540074 137.000404,20.6540074 C138.155846,20.6540074 139.101618,21.5996691 139.101618,22.7552206 C139.101618,23.9111029 138.155846,24.8564338 137.000404,24.8564338 Z M137.000404,21.7048897 C136.370074,21.7048897 135.949522,22.23 135.949522,22.7552206 C135.949522,23.2808824 136.474743,23.8059926 137.000404,23.8059926 C137.525515,23.8059926 138.050735,23.2808824 138.050735,22.7552206 C138.050735,22.23 137.630735,21.7048897 137.000404,21.7048897 Z M157.066985,76.2315441 C155.911544,76.2315441 154.965772,75.2862132 154.965772,74.1303309 C154.965772,72.9747794 155.911544,72.0291176 157.066985,72.0291176 C158.222537,72.0291176 159.168199,72.9747794 159.168199,74.1303309 C159.168199,75.2862132 158.222537,76.2315441 157.066985,76.2315441 Z M157.066985,72.9747794 C156.436654,72.9747794 156.016654,73.5 156.016654,74.0256618 C156.016654,74.5507721 156.541765,75.0759926 157.066985,75.0759926 C157.592206,75.0759926 158.117868,74.5507721 158.117868,74.0256618 C158.117868,73.5 157.592206,72.9747794 157.066985,72.9747794 Z" id="Fill-1" fill="#B9B9B9"></path>
                    <path d="M28.5769853,54.9041912 C28.5769853,55.6586029 29.1883456,56.2699632 29.9426471,56.2699632 C30.6966176,56.2699632 31.3084191,55.6586029 31.3084191,54.9041912 C31.3084191,54.1497794 30.6966176,53.5385294 29.9426471,53.5385294 C29.1883456,53.5385294 28.5769853,54.1497794 28.5769853,54.9041912 Z" id="Fill-2" fill="#DFDFDF"></path>
                    <path d="M40.0286029,14.8756985 C40.0281618,15.36375 40.2887868,15.8148529 40.7114338,16.0587132 C41.1336397,16.3030147 41.6545588,16.3030147 42.0772059,16.0587132 C42.4998529,15.8148529 42.7600368,15.36375 42.7600368,14.8756985 C42.7600368,14.3875368 42.4998529,13.936875 42.0772059,13.6925735 C41.6545588,13.4487132 41.1336397,13.4487132 40.7114338,13.6925735 C40.2887868,13.936875 40.0281618,14.3875368 40.0286029,14.8756985 Z" id="Fill-3" fill="#DFDFDF"></path>
                    <path d="M66.0838235,10.8834926 C66.0838235,11.2588235 66.2842279,11.6055882 66.6090441,11.7934191 C66.9338603,11.9808088 67.3345588,11.9808088 67.6598162,11.7934191 C67.9847426,11.6055882 68.1850368,11.2588235 68.1850368,10.8834926 C68.1850368,10.5082721 67.9847426,10.1613971 67.6598162,9.97356618 C67.3345588,9.78573529 66.9338603,9.78573529 66.6090441,9.97356618 C66.2842279,10.1613971 66.0838235,10.5082721 66.0838235,10.8834926 Z" id="Fill-4" fill="#DFDFDF"></path>
                    <path d="M93.084375,1.11253676 C93.084375,1.48830882 93.2846691,1.83507353 93.6095956,2.02290441 C93.9348529,2.21040441 94.3355515,2.21040441 94.6603676,2.02290441 C94.985625,1.83507353 95.1860294,1.48830882 95.1860294,1.11253676 C95.1860294,0.737316176 94.985625,0.390551471 94.6603676,0.202610294 C94.3355515,0.0147794118 93.9348529,0.0147794118 93.6095956,0.202610294 C93.2846691,0.390551471 93.084375,0.737316176 93.084375,1.11253676 Z" id="Fill-5" fill="#DFDFDF"></path>
                    <path d="M126.179007,27.0627574 C126.178676,27.4384191 126.378971,27.7851838 126.704228,27.973125 C127.029044,28.1609559 127.429743,28.1609559 127.755,27.973125 C128.079926,27.7851838 128.280221,27.4384191 128.280221,27.0627574 C128.280221,26.6874265 128.079926,26.3406618 127.755,26.1528309 C127.429743,25.965 127.029044,25.965 126.704228,26.1528309 C126.378971,26.3406618 126.178676,26.6874265 126.179007,27.0627574 Z" id="Fill-6" fill="#DFDFDF"></path>
                    <path d="M19.9614706,38.4097059 C19.9614706,38.7849265 20.161875,39.1316912 20.4871324,39.3196324 C20.8119485,39.5070221 21.2126471,39.5070221 21.5374632,39.3196324 C21.8628309,39.1316912 22.063125,38.7849265 22.063125,38.4097059 C22.063125,38.034375 21.8628309,37.6871691 21.5374632,37.4997794 C21.2126471,37.3118382 20.8119485,37.3118382 20.4871324,37.4997794 C20.161875,37.6871691 19.9614706,38.034375 19.9614706,38.4097059 Z" id="Fill-7" fill="#DFDFDF"></path>
                    <path d="M40.9738235,35.3628309 L109.474191,70.8735662 L112.941176,79.59375 L114.517169,82.1149632 L118.404154,66.9861397 L62.3015074,43.9777941 L40.9738235,35.3628309 Z M59.0444118,39.9856985 L127.96489,61.2078309 L118.614485,66.4610294 L56.8380882,41.56125 L45.4915809,36.3084926 L59.0444118,39.9856985 Z" id="Fill-8" fill="#F8F8F8"></path>
                    <polygon id="Fill-9" fill="#F8F8F8" points="41.0789338 37.779375 90.6682721 83.3760662 109.263971 71.5038971 41.0789338 35.8879412 38.2422794 34.6273897"></polygon>
                    <path d="M86.3607353,89.8898162 C86.255625,89.8898162 86.0454044,89.7847059 85.9401838,89.6795956 L38.6628309,37.1486029 L38.5577206,37.0439338 L37.4017279,34.4170588 C37.2966176,34.2072794 37.4017279,33.9970588 37.5068382,33.7867279 C37.6120588,33.6816176 37.8222794,33.6816176 38.0320588,33.7867279 L109.474191,70.6633456 C109.684081,70.7684559 109.789191,70.8735662 109.789191,71.0838971 C109.789191,71.2936765 109.684081,71.3987868 109.579412,71.5038971 L93.3997059,84.4263971 C93.1894853,84.6367279 92.8744853,84.5315074 92.6642647,84.3212868 C92.4540441,84.1115074 92.4540441,83.7960662 92.769375,83.5858456 L108.318309,71.1885662 L38.8726103,35.3628309 L39.3982721,36.6233824 L86.3607353,88.7339338 L90.6682721,85.3721691 C90.8780515,85.1618382 91.1933824,85.2669485 91.4037132,85.4772794 C91.6134926,85.6870588 91.5088235,86.0023897 91.2984926,86.2127206 L86.675625,89.8898162 L86.3607353,89.8898162 Z" id="Fill-10" fill="#B9B9B9"></path>
                    <path d="M114.096728,83.3760662 C113.886838,83.3760662 113.676618,83.2709559 113.571507,83.060625 L108.843971,71.5038971 C108.73875,71.1885662 108.843971,70.9787868 109.15886,70.7684559 C109.474191,70.6633456 109.684081,70.7684559 109.894301,71.0838971 L113.991949,81.2748529 L117.879044,66.8810294 L37.6120588,34.2072794 C37.4017279,34.1021691 37.1919485,33.7867279 37.2966176,33.5765074 C37.4017279,33.3667279 37.6120588,33.1565074 37.9273897,33.2616176 L97.0769118,49.4412132 C97.3919118,49.5458824 97.4970221,49.7562132 97.3919118,50.0715441 C97.2871324,50.3864338 97.0769118,50.4916544 96.7615809,50.3864338 L46.2270221,36.5182721 L118.509265,65.9358088 L129.960882,59.5270588 L100.018676,51.3322059 C99.7033456,51.2269853 99.598125,51.0167647 99.598125,50.701875 C99.7033456,50.3864338 99.9135662,50.2813235 100.228897,50.2813235 L131.431765,58.7916176 C131.642096,58.8963971 131.747206,59.0015074 131.852316,59.2117279 C131.852316,59.4219485 131.747206,59.6318382 131.642096,59.7369485 L119.139596,66.7763603 L119.034926,66.8810294 L114.622279,83.060625 C114.517169,83.2709559 114.306949,83.3760662 114.096728,83.3760662 Z" id="Fill-11" fill="#B9B9B9"></path>
                    <path d="M113.571507,83.9012868 C113.466397,83.9012868 113.361287,83.9012868 113.361287,83.7960662 L102.11989,77.2823162 C101.909559,77.1772059 101.804449,76.8622059 101.909559,76.546875 C102.014779,76.3366544 102.33011,76.2315441 102.645,76.3366544 L113.886838,82.8504044 C114.096728,82.9555147 114.201838,83.2709559 114.096728,83.5858456 C113.991949,83.9012868 113.781728,83.9012868 113.571507,83.9012868 Z" id="Fill-12" fill="#B9B9B9"></path>
                    <g id="编组" transform="translate(0.000000, 12.573529)">
                        <mask id="mask-2" fill="white">
                            <use xlink:href="#path-1"></use>
                        </mask>
                        <g id="Clip-14"></g>
                        <path d="M21.4323529,15.1198897 L9.875625,15.1198897 C7.98474265,15.1198897 6.40863971,13.5438971 6.40863971,11.5474632 C6.40863971,9.55136029 7.98474265,7.87069853 9.875625,7.87069853 L10.7161765,7.87069853 L10.7161765,7.13525735 C10.9263971,4.40327206 13.1327206,2.30216912 15.7591544,2.30216912 C17.7551471,2.30216912 19.5414706,3.56316176 20.3820221,5.45415441 L20.5922426,5.97926471 L21.9580147,5.97926471 C23.8488971,6.18959559 25.425,7.55525735 25.9501103,9.44625 C26.0552206,9.76158088 26.2655515,10.6021324 25.9501103,11.5474632 C25.5301103,13.2285662 23.9541176,14.6994485 21.9580147,15.2246691" id="Fill-13" fill="#F8F8F8" mask="url(#mask-2)"></path>
                        <path d="M18.2808088,16.9057721 L17.6504779,16.8006618 L5.25319853,16.8006618 C2.41654412,16.8006618 0,14.3844485 0,11.3375735 C0,8.39591912 2.10121324,6.08448529 4.83264706,5.97926471 C5.35830882,2.72261029 8.19496324,0.0958455882 11.6618382,0.0958455882 C14.1831618,0.0958455882 16.4945956,1.56672794 17.6504779,3.87816176 L18.3859191,3.87816176 C21.1174632,4.19349265 23.3237868,6.08448529 23.9541176,8.81591912 C24.0592279,9.23647059 24.2690074,10.3919118 23.9541176,11.8627941 C23.4288971,14.3844485 21.2225735,16.2754412 18.3859191,17.0108824 L18.2808088,17.0108824 L18.2808088,16.9057721 Z M17.7551471,15.4348897 L18.2808088,15.4348897 C20.5922426,14.8045588 22.2729044,13.2285662 22.6934559,11.3375735 C22.9032353,10.2868015 22.6934559,9.34158088 22.6934559,9.02613971 C22.1677941,6.92503676 20.4871324,5.34904412 18.3859191,5.13871324 C18.0705882,5.13871324 17.7551471,5.13871324 17.4402574,5.24382353 L16.9150368,5.34904412 L16.7048162,4.82382353 C15.7591544,2.72261029 13.7630515,1.35683824 11.6618382,1.35683824 C8.72007353,1.35683824 6.30352941,3.66783088 6.09375,6.71470588 L6.09375,7.55525735 L5.14808824,7.45014706 L5.04297794,7.45014706 C2.94176471,7.45014706 1.26066176,9.23647059 1.26066176,11.4427941 C1.26066176,13.6490074 2.94176471,15.4348897 5.04297794,15.4348897 L17.7551471,15.4348897 Z" id="Fill-15" fill="#B9B9B9" mask="url(#mask-2)"></path>
                        <path d="M159.063088,41.5952206 L149.607463,41.5952206 C148.031912,41.5952206 146.770919,40.4397794 146.770919,38.9688971 C146.770919,37.4980147 148.031912,36.2369118 149.607463,36.2369118 L150.342904,36.2369118 L150.342904,35.7118015 C150.553235,33.7156985 152.339449,32.1397059 154.440662,32.1397059 C156.016654,32.1397059 157.487096,33.0853676 158.222537,34.4511397 L158.432757,34.7660294 L159.58875,34.7660294 C161.164301,34.87125 162.425294,35.9220221 162.845404,37.3929044 C162.950515,37.6026838 163.055625,38.2334559 162.845404,38.9688971 C162.530404,40.2295588 161.269412,41.2798897 159.58875,41.7003309" id="Fill-16" fill="#F8F8F8" mask="url(#mask-2)"></path>
                    </g>
                    <path d="M156.436654,55.7447426 L146.035478,55.7447426 C143.724044,55.7447426 141.833051,53.9585294 141.833051,51.6470956 C141.833051,49.4412132 143.514154,47.7601103 145.720478,47.655 C146.140588,45.0285662 148.452022,43.1372426 151.183456,43.1372426 C153.179559,43.1372426 155.070993,44.1880147 156.016654,45.9738971 L156.541765,45.9738971 C158.748088,46.1841176 160.533971,47.655 161.059522,49.6509926 C161.164301,49.9664338 161.374522,50.8069853 161.059522,51.8573162 C160.639081,53.74875 158.853309,55.2196324 156.541765,55.7447426 L156.436654,55.7447426 Z M156.121324,54.6939706 L156.541765,54.6939706 C158.327647,54.16875 159.798529,53.0133088 160.11386,51.6470956 C160.324081,50.8069853 160.11386,50.1762132 160.11386,49.8613235 C159.693419,48.2853309 158.327647,47.1297794 156.541765,47.0246691 L155.385882,47.0246691 L155.176103,46.6041176 C154.440662,45.1332353 152.864669,44.0829044 151.078346,44.0829044 C148.767353,44.0829044 146.770919,45.8686765 146.665809,48.075 L146.665809,48.7057721 L145.825588,48.7057721 C144.144485,48.7057721 142.778713,50.0715441 142.778713,51.7522059 C142.778713,53.4333088 144.144485,54.6939706 145.825588,54.6939706 L156.121324,54.6939706 Z" id="Fill-17" fill="#B9B9B9"></path>
                </g>
            </g>
        </g>
    </g>
</svg>
