<?xml version="1.0" encoding="UTF-8"?>
<svg width="350px" height="350px" viewBox="0 0 350 350" version="1.1" xmlns="http://www.w3.org/2000/svg" xmlns:xlink="http://www.w3.org/1999/xlink">
    <!-- Generator: Sketch 53 (72520) - https://sketchapp.com -->
    <title>无搜索结果</title>
    <desc>Created with Sketch.</desc>
    <g id="搜索" stroke="none" stroke-width="1" fill="none" fill-rule="evenodd">
        <g id="搜索客户证件号-copy" transform="translate(-200.000000, -328.000000)">
            <rect fill="#FFFFFF" x="0" y="0" width="750" height="1334"></rect>
            <g id="无结果-02" transform="translate(200.000000, 328.000000)">
                <rect id="Rectangle-path" x="0.498575499" y="0.498575499" width="349.002849" height="349.002849"></rect>
                <path d="M324.074074,273.219373 L24.9287749,273.219373 C24.9287749,190.61268 91.8947312,123.646724 174.501425,123.646724 C257.108118,123.646724 324.074074,190.61268 324.074074,273.219373 L324.074074,273.219373 Z" id="Shape" fill="#0D7AFF" fill-rule="nonzero" opacity="0.1"></path>
                <path d="M290.17094,273.219373 L58.8319088,273.219373 C58.8319088,209.336864 110.618915,157.549858 174.501425,157.549858 C238.383934,157.549858 290.17094,209.336864 290.17094,273.219373 L290.17094,273.219373 Z" id="Shape" fill="#0D7AFF" fill-rule="nonzero" opacity="0.3"></path>
                <rect id="Rectangle-path" fill="#0D7AFF" fill-rule="nonzero" x="249.287749" y="307.122507" width="40.8831909" height="5.98290598" rx="2.99145299"></rect>
                <rect id="Rectangle-path" fill="#0D7AFF" fill-rule="nonzero" x="58.8319088" y="307.122507" width="171.509972" height="5.98290598" rx="2.99145299"></rect>
                <rect id="Rectangle-path" fill="#0D7AFF" fill-rule="nonzero" x="140.598291" y="286.182336" width="40.8831909" height="5.98290598" rx="2.99145299"></rect>
                <rect id="Rectangle-path" fill="#0D7AFF" fill-rule="nonzero" x="23.9316239" y="286.182336" width="106.695157" height="5.98290598" rx="2.99145299"></rect>
                <rect id="Rectangle-path" fill="#0D7AFF" fill-rule="nonzero" x="211.396011" y="286.182336" width="114.672365" height="5.98290598" rx="2.99145299"></rect>
                <rect id="Rectangle-path" fill="#0D7AFF" fill-rule="nonzero" x="0" y="270.22792" width="40.8831909" height="5.98290598" rx="2.99145299"></rect>
                <rect id="Rectangle-path" fill="#0D7AFF" fill-rule="nonzero" x="51.8518519" y="270.22792" width="58.8319088" height="5.98290598" rx="2.99145299"></rect>
                <rect id="Rectangle-path" fill="#0D7AFF" fill-rule="nonzero" x="118.660969" y="270.22792" width="190.45584" height="5.98290598" rx="2.99145299"></rect>
                <rect id="Rectangle-path" fill="#0D7AFF" fill-rule="nonzero" x="320.08547" y="270.22792" width="28.9173789" height="5.98290598" rx="2.99145299"></rect>
                <g id="Group" opacity="0.3" transform="translate(33.903134, 107.692308)" fill="#0D7AFF" fill-rule="nonzero">
                    <rect id="Rectangle-path" transform="translate(6.980057, 7.229345) rotate(90.000000) translate(-6.980057, -7.229345) " x="5.48433048" y="0.249287749" width="2.99145299" height="13.960114" rx="1.35"></rect>
                    <rect id="Rectangle-path" transform="translate(6.980057, 7.229345) rotate(180.000000) translate(-6.980057, -7.229345) " x="5.48433048" y="0.249287749" width="2.99145299" height="13.960114" rx="1.35"></rect>
                </g>
                <g id="Group" opacity="0.3" transform="translate(224.358974, 43.874644)" fill="#0D7AFF" fill-rule="nonzero">
                    <path d="M9.3482906,0.254273504 L9.3482906,0.254273504 C10.4552203,0.254273504 11.3525641,1.15161732 11.3525641,2.25854701 L11.3525641,16.9465812 C11.3525641,18.0535109 10.4552203,18.9508547 9.3482906,18.9508547 L9.3482906,18.9508547 C8.24136091,18.9508547 7.34401709,18.0535109 7.34401709,16.9465812 L7.34401709,2.25854701 C7.34401709,1.15161732 8.24136091,0.254273504 9.3482906,0.254273504 Z" id="Rectangle-path" transform="translate(9.348291, 9.602564) rotate(90.000000) translate(-9.348291, -9.602564) "></path>
                    <path d="M9.34330484,0.249287749 L9.34330484,0.249287749 C10.4502345,0.249287749 11.3475783,1.14663156 11.3475783,2.25356125 L11.3475783,16.9415954 C11.3475783,18.0485251 10.4502345,18.9458689 9.34330484,18.9458689 L9.34330484,18.9458689 C8.23637515,18.9458689 7.33903134,18.0485251 7.33903134,16.9415954 L7.33903134,2.25356125 C7.33903134,1.14663156 8.23637515,0.249287749 9.34330484,0.249287749 Z" id="Rectangle-path" transform="translate(9.343305, 9.597578) rotate(180.000000) translate(-9.343305, -9.597578) "></path>
                </g>
                <g id="Group" opacity="0.3" transform="translate(327.065527, 157.549858)" fill="#0D7AFF" fill-rule="nonzero">
                    <rect id="Rectangle-path" transform="translate(6.979890, 6.233566) rotate(135.000000) translate(-6.979890, -6.233566) " x="5.48416367" y="-0.746491062" width="2.99145299" height="13.960114" rx="1.35"></rect>
                    <rect id="Rectangle-path" transform="translate(6.978685, 6.232027) rotate(-135.000000) translate(-6.978685, -6.232027) " x="5.4829583" y="-0.74803006" width="2.99145299" height="13.960114" rx="1.35"></rect>
                </g>
                <g id="Group" opacity="0.3" transform="translate(81.766382, 43.874644)" fill="#0D7AFF" fill-rule="nonzero">
                    <path d="M6.23219373,3.24074074 C7.74664978,3.24074074 8.97435897,4.46844994 8.97435897,5.98290598 C8.97435897,7.49736203 7.74664978,8.72507123 6.23219373,8.72507123 C4.71773769,8.72507123 3.49002849,7.49736203 3.49002849,5.98290598 C3.49002849,4.46844994 4.71773769,3.24074074 6.23219373,3.24074074 L6.23219373,3.24074074 Z M6.23219373,0.249287749 C3.91316163,0.249287749 1.82247636,1.64623898 0.935021199,3.78874528 C0.0475660345,5.93125157 0.538110074,8.39738299 2.1779134,10.0371863 C3.81771672,11.6769896 6.28384814,12.1675337 8.42635444,11.2800785 C10.5688607,10.3926234 11.965812,8.30193808 11.965812,5.98290598 C11.9684649,4.46144414 11.365241,3.00153398 10.2894034,1.92569636 C9.21356573,0.849858737 7.75365558,0.246634802 6.23219373,0.249287749 L6.23219373,0.249287749 Z" id="Shape"></path>
                </g>
                <g id="Group" opacity="0.3" transform="translate(125.641026, 69.800570)" fill="#0D7AFF" fill-rule="nonzero">
                    <path d="M8.47578348,16.951567 C3.79473752,16.951567 0,13.1568294 0,8.47578348 C0,3.79473752 3.79473752,0 8.47578348,0 C13.1568294,0 16.951567,3.79473752 16.951567,8.47578348 C16.9460722,13.1545515 13.1545515,16.9460722 8.47578348,16.951567 Z M8.47578348,2.99145299 C5.44687139,2.99145299 2.99145299,5.44687139 2.99145299,8.47578348 C2.99145299,11.5046956 5.44687139,13.960114 8.47578348,13.960114 C11.5046956,13.960114 13.960114,11.5046956 13.960114,8.47578348 C13.9546259,5.44914751 11.5024194,2.99694101 8.47578348,2.99145299 Z" id="Shape"></path>
                </g>
                <g id="Group" opacity="0.3" transform="translate(284.188034, 76.780627)" fill="#0D7AFF" fill-rule="nonzero">
                    <path d="M5.98290598,11.965812 C2.67863825,11.965812 0,9.28717372 0,5.98290598 C0,2.67863825 2.67863825,0 5.98290598,0 C9.28717372,0 11.965812,2.67863825 11.965812,5.98290598 C11.965812,9.28717372 9.28717372,11.965812 5.98290598,11.965812 Z M5.98290598,2.99145299 C4.33077212,2.99145299 2.99145299,4.33077212 2.99145299,5.98290598 C2.99145299,7.63503985 4.33077212,8.97435897 5.98290598,8.97435897 C7.63503985,8.97435897 8.97435897,7.63503985 8.97435897,5.98290598 C8.97435897,4.33077212 7.63503985,2.99145299 5.98290598,2.99145299 Z" id="Shape"></path>
                </g>
                <g id="Group" opacity="0.3" transform="translate(6.980057, 187.464387)" fill="#0D7AFF" fill-rule="nonzero">
                    <path d="M9.47293447,18.9458689 C5.64149013,18.9458689 2.18731447,16.6378626 0.721084201,13.0980696 C-0.745146071,9.55827654 0.0653179935,5.48379855 2.77455827,2.77455827 C5.48379855,0.0653179935 9.55827654,-0.745146071 13.0980696,0.721084201 C16.6378626,2.18731447 18.9458689,5.64149013 18.9458689,9.47293447 C18.9403729,14.7024135 14.7024135,18.9403729 9.47293447,18.9458689 Z M9.47293447,2.99145299 C5.89331109,2.99145299 2.99145299,5.89331109 2.99145299,9.47293447 C2.99145299,13.0525579 5.89331109,15.954416 9.47293447,15.954416 C13.0525579,15.954416 15.954416,13.0525579 15.954416,9.47293447 C15.948925,5.89558799 13.050281,2.99694394 9.47293447,2.99145299 Z" id="Shape"></path>
                </g>
                <rect id="Rectangle-path" fill="#0D7AFF" fill-rule="nonzero" transform="translate(222.629044, 110.626118) rotate(45.000000) translate(-222.629044, -110.626118) " x="220.136166" y="102.688796" width="4.98575499" height="15.8746439"></rect>
                <polygon id="Rectangle-path" fill="#0D7AFF" fill-rule="nonzero" transform="translate(229.011491, 125.404294) rotate(80.000000) translate(-229.011491, -125.404294) " points="226.518614 119.421388 231.504369 119.421388 231.504369 131.3872 226.518614 131.3872"></polygon>
                <rect id="Rectangle-path" fill="#0D7AFF" fill-rule="nonzero" transform="translate(207.850903, 104.253816) rotate(10.000000) translate(-207.850903, -104.253816) " x="205.358026" y="98.2709105" width="4.98575499" height="11.965812"></rect>
                <path d="M241.470085,249.287749 L241.470085,249.287749 C240.16105,250.596918 238.385538,251.332412 236.534188,251.332412 C234.682838,251.332412 232.907326,250.596918 231.598291,249.287749 L173.075499,190.764957 C171.76633,189.455922 171.030835,187.680409 171.030835,185.82906 C171.030835,183.97771 171.76633,182.202197 173.075499,180.893162 L173.075499,180.893162 C174.384534,179.583994 176.160046,178.848499 178.011396,178.848499 C179.862746,178.848499 181.638258,179.583994 182.947293,180.893162 L214.95584,212.901709 L218.276353,216.222222 L241.470085,239.415954 C242.779254,240.724989 243.514749,242.500502 243.514749,244.351852 C243.514749,246.203201 242.779254,247.978714 241.470085,249.287749 L241.470085,249.287749 Z" id="Shape" fill="#FFFFFF" fill-rule="nonzero"></path>
                <path d="M241.470085,249.287749 L241.470085,249.287749 C240.16105,250.596918 238.385538,251.332412 236.534188,251.332412 C234.682838,251.332412 232.907326,250.596918 231.598291,249.287749 L173.075499,190.764957 C171.76633,189.455922 171.030835,187.680409 171.030835,185.82906 C171.030835,183.97771 171.76633,182.202197 173.075499,180.893162 L173.075499,180.893162 C174.384534,179.583994 176.160046,178.848499 178.011396,178.848499 C179.862746,178.848499 181.638258,179.583994 182.947293,180.893162 L214.95584,212.901709 L218.276353,216.222222 L241.470085,239.415954 C242.779254,240.724989 243.514749,242.500502 243.514749,244.351852 C243.514749,246.203201 242.779254,247.978714 241.470085,249.287749 L241.470085,249.287749 Z" id="Shape" fill="#D40001" fill-rule="nonzero" opacity="0.1"></path>
                <path d="M241.559829,246.047009 L241.559829,246.047009 C239.226496,248.380342 235.148148,248.111111 232.495726,245.458689 L175.309117,188.27208 C172.656695,185.619658 172.387464,181.541311 174.720798,179.207977 L174.720798,179.207977 C177.054131,176.874644 181.132479,177.143875 183.7849,179.796296 L215.065527,211.076923 L218.306268,214.317664 L240.97151,236.982906 C243.623932,239.635328 243.893162,243.713675 241.559829,246.047009 Z" id="Shape" fill="#FFFFFF" fill-rule="nonzero"></path>
                <path d="M221.776353,239.425926 L173.075499,190.725071 C171.76633,189.416036 171.030835,187.640523 171.030835,185.789174 C171.030835,183.937824 171.76633,182.162311 173.075499,180.853276 L173.075499,180.853276 C174.384534,179.544108 176.160046,178.808613 178.011396,178.808613 C179.862746,178.808613 181.638258,179.544108 182.947293,180.853276 L214.95584,212.861823" id="Shape" stroke="#0D7AFF" stroke-width="4" stroke-linecap="round" stroke-linejoin="round"></path>
                <path d="M215.324786,213.17094 L241.470085,239.376068 C242.779254,240.685103 243.514749,242.460616 243.514749,244.311966 C243.514749,246.163315 242.779254,247.938828 241.470085,249.247863 L241.470085,249.247863 C240.16105,250.557032 238.385538,251.292526 236.534188,251.292526 C234.682838,251.292526 232.907326,250.557032 231.598291,249.247863 L226.871795,244.511396" id="Shape" stroke="#0D7AFF" stroke-width="4" stroke-linecap="round" stroke-linejoin="round"></path>
                <circle id="Oval" fill="#FFFFFF" fill-rule="nonzero" cx="165.327635" cy="172.387464" r="59.8290598"></circle>
                <circle id="Oval" fill="#0D7AFF" fill-rule="nonzero" opacity="0.1" cx="165.327635" cy="172.387464" r="59.8290598"></circle>
                <circle id="Oval" fill="#FFFFFF" fill-rule="nonzero" cx="169.017094" cy="168.698006" r="56.1296296"></circle>
                <path d="M110.035613,195.292023 C103.490929,179.497411 104.016098,161.657446 111.478558,146.275173 C118.941019,130.8929 132.627752,119.438055 149.084046,114.801994" id="Shape" stroke="#0D7AFF" stroke-width="4" stroke-linecap="round" stroke-linejoin="round"></path>
                <path d="M123.018519,214.696581 C119.896861,211.583605 117.127992,208.135895 114.762108,204.415954" id="Shape" stroke="#0D7AFF" stroke-width="4" stroke-linecap="round" stroke-linejoin="round"></path>
                <path d="M172.088319,112.947293 C197.502027,115.83755 218.26761,134.563441 223.760684,159.54416" id="Shape" stroke="#0D7AFF" stroke-width="4" stroke-linecap="round" stroke-linejoin="round"></path>
                <path d="M156.732194,113.176638 C159.240218,112.819709 161.767733,112.616575 164.30057,112.568376" id="Shape" stroke="#0D7AFF" stroke-width="4" stroke-linecap="round" stroke-linejoin="round"></path>
                <path d="M144.527066,128.413105 C148.327564,126.308429 152.452563,124.852547 156.732194,124.105413 C160.016822,123.463757 163.357039,123.149776 166.703704,123.168091 C175.773452,123.139259 184.646303,125.812223 192.190883,130.846154" id="Shape" stroke="#0D7AFF" stroke-width="4" stroke-linecap="round" stroke-linejoin="round"></path>
                <path d="M225.136752,171.031339 C225.662806,194.112825 212.861329,215.437291 192.242886,225.825339 C171.624443,236.213387 146.86885,233.811041 128.632479,219.652422" id="Shape" stroke="#0D7AFF" stroke-width="4" stroke-linecap="round" stroke-linejoin="round"></path>
                <polygon id="Rectangle-path" points="154.438746 153.660969 184.303419 153.660969 184.303419 202.421652 154.438746 202.421652"></polygon>
                <path d="M164.908832,191.383191 C164.509468,191.383732 164.118358,191.269514 163.782051,191.054131 C163.436506,190.859909 163.145113,190.582228 162.934473,190.246439 C162.740593,189.895164 162.637751,189.500935 162.635328,189.099715 C162.610973,188.484637 162.84616,187.887624 163.283476,187.454416 C163.727425,187.04236 164.313161,186.817352 164.918803,186.826211 C165.519124,186.808023 166.100218,187.039017 166.524217,187.464387 C167.039993,187.964809 167.287496,188.68042 167.1911,189.392568 C167.094704,190.104716 166.665865,190.728778 166.035613,191.074074 C165.688714,191.282129 165.293325,191.395589 164.888889,191.403134 L164.908832,191.383191 Z M164.749288,182.997151 C164.266147,182.934189 163.822769,182.696538 163.502849,182.32906 C163.186977,181.951504 163.036071,181.462855 163.084046,180.972934 C163.280337,179.356605 163.903272,177.821639 164.888889,176.525641 C165.961824,175.047109 167.173911,173.674745 168.508547,172.42735 L168.508547,172.42735 C170.060422,170.989829 171.403031,169.341776 172.497151,167.531339 C172.964333,166.6774 173.188504,165.711738 173.145299,164.739316 C173.238022,162.840731 172.533072,160.989787 171.200855,159.633903 C170.433871,158.835363 169.515148,158.19802 168.498575,157.759259 C167.474576,157.333438 166.376813,157.113208 165.267806,157.111111 C163.167371,157.085664 161.147305,157.917456 159.673789,159.41453 C158.22946,160.894719 157.405439,162.870941 157.37037,164.938746 L157.37037,164.938746 C157.395613,165.441556 157.209699,165.932057 156.857518,166.291812 C156.505337,166.651566 156.018902,166.847874 155.51567,166.833333 C155.016903,166.863783 154.530583,166.669986 154.189459,166.304843 L154.189459,166.304843 C153.835484,165.937637 153.635653,165.448764 153.631054,164.938746 C153.646309,163.42603 153.961509,161.931368 154.558405,160.541311 C155.78998,157.723979 158.041121,155.476401 160.860399,154.249288 C162.259045,153.663292 163.761349,153.364865 165.277778,153.371795 C166.906312,153.367581 168.519535,153.686159 170.024217,154.309117 C171.531005,154.920196 172.890613,155.844728 174.012821,157.021368 C175.058484,158.055847 175.868061,159.304228 176.38604,160.680912 C176.885277,162.041795 177.092522,163.492512 176.994302,164.938746 L176.994302,164.938746 C176.976665,166.356372 176.635616,167.751261 175.997151,169.017094 C174.712924,171.236101 173.10665,173.252344 171.230769,175 C170.131761,176.045932 169.108748,177.168914 168.169516,178.360399 C167.497732,179.190732 167.06047,180.18576 166.903134,181.242165 C166.844275,181.704204 166.625552,182.131068 166.2849,182.448718 C165.948708,182.76625 165.500774,182.938257 165.038462,182.92735 L164.819088,182.92735 L164.749288,182.997151 Z" id="Shape" fill="#0D7AFF" fill-rule="nonzero"></path>
            </g>
        </g>
    </g>
</svg>