<?xml version="1.0" encoding="UTF-8"?>
<svg width="24px" height="24px" viewBox="0 0 24 24" version="1.1" xmlns="http://www.w3.org/2000/svg" xmlns:xlink="http://www.w3.org/1999/xlink">
    <!-- Generator: Sketch 51.1 (57501) - http://www.bohemiancoding.com/sketch -->
    <title>Fill 1 Copy 11</title>
    <desc>Created with Sketch.</desc>
    <defs></defs>
    <g id="UI-kit" stroke="none" stroke-width="1" fill="none" fill-rule="evenodd">
        <g id="icon" transform="translate(-317.000000, -360.000000)" fill="#ffffff">
            <path d="M328.995631,382.239003 C330.390873,382.239003 331.563396,381.28253 331.898781,379.9907 L326.092341,379.9907 C326.425419,381.284752 327.600249,382.239003 328.995631,382.239003 Z M335.742678,375.415354 L335.742678,370.207722 C335.742678,370.207722 335.983456,366.539282 331.889751,365.360063 C331.957238,365.126008 331.993275,364.880616 331.993275,364.624141 C331.993275,363.174831 330.818444,362 329.369134,362 C327.919796,362 326.745106,363.174831 326.745106,364.624141 C326.745106,364.822159 326.767499,365.015676 326.808064,365.202498 C322.030199,366.163472 322.248556,370.207722 322.248556,370.207722 L322.248556,375.415354 C319.930431,376.4439 320.000225,379.376307 320.000225,379.245748 L325.995653,379.245748 L325.995653,379.243554 L337.990897,379.243554 C338.166522,376.801706 335.742678,375.415354 335.742678,375.415354 Z" id="Fill-1"></path>
        </g>
    </g>
</svg>
